<?xml version="1.0" encoding="UTF-8" standalone="no"?>
<!-- Created with Inkscape (http://www.inkscape.org/) -->

<svg
   xmlns:dc="http://purl.org/dc/elements/1.1/"
   xmlns:cc="http://creativecommons.org/ns#"
   xmlns:rdf="http://www.w3.org/1999/02/22-rdf-syntax-ns#"
   xmlns:svg="http://www.w3.org/2000/svg"
   xmlns="http://www.w3.org/2000/svg"
   xmlns:sodipodi="http://sodipodi.sourceforge.net/DTD/sodipodi-0.dtd"
   xmlns:inkscape="http://www.inkscape.org/namespaces/inkscape"
   width="100mm"
   height="80mm"
   viewBox="0 0 100 80"
   version="1.1"
   id="svg7814"
   inkscape:version="0.92.3 (2405546, 2018-03-11)"
   sodipodi:docname="colornova.svg">
  <defs
     id="defs7808" />
  <sodipodi:namedview
     id="base"
     pagecolor="#ffffff"
     bordercolor="#666666"
     borderopacity="1.0"
     inkscape:pageopacity="0.0"
     inkscape:pageshadow="2"
     inkscape:zoom="0.35"
     inkscape:cx="-546.70106"
     inkscape:cy="-49.371708"
     inkscape:document-units="mm"
     inkscape:current-layer="layer1"
     showgrid="false"
     fit-margin-top="10"
     fit-margin-left="10"
     fit-margin-right="10"
     fit-margin-bottom="10"
     inkscape:window-width="1920"
     inkscape:window-height="1052"
     inkscape:window-x="0"
     inkscape:window-y="0"
     inkscape:window-maximized="1" />
  <metadata
     id="metadata7811">
    <rdf:RDF>
      <cc:Work
         rdf:about="">
        <dc:format>image/svg+xml</dc:format>
        <dc:type
           rdf:resource="http://purl.org/dc/dcmitype/StillImage" />
        <dc:title></dc:title>
      </cc:Work>
    </rdf:RDF>
  </metadata>
  <g
     inkscape:label="Layer 1"
     inkscape:groupmode="layer"
     id="layer1"
     transform="translate(-58.847394,-55.770398)">
    <path
       d="m 77.567789,110.58691 c 0.125624,0.0479 0.251213,0.0718 0.376907,0.0718 0.478614,0 1.106805,-0.19138 1.884504,-0.57428 0.783696,-0.38291 1.597413,-0.88541 2.434907,-1.5076 0.843598,-0.62219 1.657174,-1.3402 2.434978,-2.14782 0.783696,-0.80768 1.399928,-1.65117 1.860621,-2.51869 0.0598,-0.14358 0.131586,-0.29309 0.203376,-0.4367 0.07183,-0.14358 0.107703,-0.31108 0.107703,-0.49661 -0.376872,0 -0.8376,0.14362 -1.388004,0.43671 -0.550368,0.28719 -1.136685,0.6581 -1.746885,1.1188 -0.616197,0.45469 -1.238391,0.96322 -1.872615,1.53751 -0.64008,0.56839 -1.238391,1.13079 -1.794792,1.69308 -0.562398,0.55641 -1.064895,1.08293 -1.501598,1.57942 -0.43681,0.49661 -0.765775,0.91539 -0.999102,1.24439 z m 8.582624,6.4014 c 0.119592,-0.25118 0.239289,-0.52038 0.358881,-0.81361 0.1137,-0.29309 0.203411,-0.58028 0.281199,-0.86748 0.07179,-0.2812 0.119592,-0.53241 0.155505,-0.75382 0.02999,-0.21537 0.04191,-0.37087 0.04191,-0.45469 0,-0.0418 0,-0.1077 0,-0.20338 0,-0.0957 -0.02992,-0.2154 -0.08971,-0.35891 -0.04191,-0.14962 -0.1137,-0.22141 -0.221403,-0.22141 -0.101706,0 -0.239289,0.0598 -0.406788,0.18549 -0.161502,0.12563 -0.299121,0.26321 -0.400791,0.41282 -0.502603,0.67 -0.712011,1.30419 -0.628227,1.91439 0.08382,0.60431 0.334998,1.01709 0.747818,1.22639 0.02399,0.018 0.05391,0.03 0.09571,0.03 0.02399,0 0.04188,-0.03 0.0659,-0.0958 z m -2.226416,0.24081 c -0.09511,0.1016 -0.202882,0.21498 -0.323497,0.34011 l -0.106398,0.53188 c -0.04191,0.20342 -0.06579,0.38291 -0.07779,0.53841 -0.01203,0.14958 -0.01803,0.24529 -0.01803,0.2872 0.02402,0.18549 0.09581,0.2752 0.221403,0.2752 0.101706,0 0.185491,-0.012 0.251319,-0.0299 0.269205,-0.10171 0.538374,-0.25728 0.807579,-0.4547 0.275202,-0.20341 0.430812,-0.33499 0.472722,-0.40079 -0.503689,-0.23132 -0.910195,-0.595 -1.227308,-1.0874 z m 14.091004,-0.24081 c 0.119591,-0.25118 0.239289,-0.52038 0.358881,-0.81361 0.113699,-0.29309 0.203411,-0.58028 0.281233,-0.86748 0.07179,-0.2812 0.119592,-0.53241 0.155469,-0.75382 0.03002,-0.21537 0.04191,-0.37087 0.04191,-0.45469 0,-0.0418 0,-0.1077 0,-0.20338 0,-0.0957 -0.02988,-0.2154 -0.08971,-0.35891 -0.04187,-0.14962 -0.113699,-0.22141 -0.221366,-0.22141 -0.101706,0 -0.239326,0.0598 -0.406824,0.18549 -0.161501,0.12563 -0.299085,0.26321 -0.40079,0.41282 -0.502603,0.67 -0.712013,1.30419 -0.628193,1.91439 0.08379,0.60431 0.334997,1.01709 0.747784,1.22639 0.024,0.018 0.0539,0.03 0.09571,0.03 0.024,0 0.04191,-0.03 0.0659,-0.0958 z m -2.240211,0.21901 c -0.0991,0.13769 -0.207503,0.28419 -0.325295,0.43959 l -0.0908,0.4542 c -0.04188,0.20342 -0.06579,0.38291 -0.07779,0.53841 -0.01199,0.14958 -0.01799,0.24529 -0.01799,0.2872 0.02399,0.18549 0.09578,0.2752 0.221404,0.2752 0.101669,0 0.185489,-0.012 0.251283,-0.0299 0.269205,-0.10171 0.538408,-0.25728 0.807614,-0.4547 0.275201,-0.20341 0.430776,-0.33499 0.472686,-0.40079 -0.511103,-0.2347 -0.921983,-0.60572 -1.241107,-1.1092 z m -26.127991,0.85188 c 0.14351,-0.39479 0.305117,-0.81357 0.484611,-1.25028 0.173496,-0.43681 0.40079,-0.92142 0.669995,-1.45379 0.269205,-0.53252 0.616197,-1.1248 1.028982,-1.77691 0.418818,-0.658 0.939306,-1.39989 1.561501,-2.23749 0.436703,-0.58032 0.945197,-1.2144 1.513628,-1.90243 0.574287,-0.68798 1.190484,-1.37597 1.860585,-2.07599 0.664104,-0.69998 1.358089,-1.382 2.08788,-2.06399 0.729932,-0.6761 1.471824,-1.2983 2.231602,-1.87262 0.759812,-0.56829 1.525516,-1.06489 2.297324,-1.48368 0.765774,-0.41282 1.51959,-0.7179 2.24349,-0.90339 0.167499,-0.0359 0.323003,-0.0658 0.472616,-0.0837 0.143581,-0.018 0.299085,-0.0239 0.46669,-0.0239 0.370911,0 0.729791,0.0598 1.058898,0.17939 0.352989,0.12569 0.628191,0.3829 0.831603,0.7778 0.197379,0.3948 0.239289,0.80158 0.137583,1.2204 -0.125694,0.52049 -0.388902,1.08889 -0.79569,1.71701 -0.406788,0.62219 -0.903393,1.26238 -1.483713,1.91449 -0.580284,0.6581 -1.232394,1.29219 -1.950402,1.90249 -0.717868,0.6162 -1.4478,1.15461 -2.183589,1.62719 -0.741892,0.46672 -1.465792,0.84363 -2.183694,1.13672 -0.717903,0.29319 -1.370013,0.43681 -1.956294,0.43681 -0.394899,0 -0.658107,-0.0419 -0.79569,-0.12573 -0.131622,-0.0837 -0.239325,-0.1256 -0.323109,-0.1256 -0.06579,0 -0.119592,0.0239 -0.173391,0.0778 -0.05391,0.0538 -0.137618,0.14948 -0.251319,0.29909 -0.1137,0.14358 -0.25728,0.34099 -0.436809,0.59231 -0.17339,0.24529 -0.412785,0.58029 -0.699876,0.99907 -0.353025,0.4966 -0.747818,1.12473 -1.172598,1.87262 -0.424815,0.74781 -0.819609,1.53151 -1.184628,2.35708 -0.364878,0.81961 -0.664104,1.63932 -0.903393,2.4469 -0.239289,0.81361 -0.352884,1.53162 -0.329001,2.15382 0.01792,0.62808 0.209409,0.9392 0.562399,0.9392 0.167499,0 0.364913,-0.0418 0.592208,-0.12559 1.5615,-0.49661 2.961499,-1.1188 4.19989,-1.85463 1.238426,-0.74189 2.309318,-1.46579 3.212606,-2.1717 0.540208,-0.4221 1.018293,-0.8164 1.433089,-1.18417 l 0.0062,-0.0303 c 0.251319,-1.35212 0.825712,-2.4349 1.717111,-3.24262 0.0418,-0.0419 0.08971,-0.14947 0.14351,-0.31708 0.04787,-0.1615 0.125695,-0.36491 0.233398,-0.6042 0.101706,-0.23933 0.245286,-0.49061 0.418782,-0.75382 0.179423,-0.25728 0.412821,-0.5026 0.705909,-0.72989 0.538409,-0.4607 1.112802,-0.68799 1.711007,-0.68799 0.400897,0 0.753886,0.11969 1.064895,0.35898 0.31108,0.23929 0.532483,0.59221 0.670101,1.0649 0.137584,0.46662 0.155611,1.0469 0.0598,1.73492 -0.08971,0.68799 -0.346992,1.48968 -0.759812,2.4051 0.503308,-0.0848 0.956697,-0.2317 1.363803,-0.43402 0.06301,-0.18941 0.128094,-0.37779 0.195298,-0.56508 0.227295,-0.63422 0.424709,-1.1726 0.592208,-1.60941 0.622194,-1.59731 1.322211,-3.1588 2.094018,-4.67839 0.765669,-1.51959 1.591275,-3.02723 2.464788,-4.5289 0.08378,-0.14351 0.185491,-0.311 0.311079,-0.49649 0.125624,-0.19153 0.257211,-0.35903 0.388903,-0.51453 0.137618,-0.15558 0.287126,-0.29319 0.454623,-0.40679 0.167605,-0.1137 0.335105,-0.1735 0.496607,-0.1735 0.317076,0 0.550368,0.10771 0.705977,0.32901 0.155506,0.2154 0.1675,0.47258 0.0478,0.76581 -0.04191,0.12559 -0.299085,0.60416 -0.76581,1.43577 -0.47258,0.8316 -1.028981,1.91452 -1.669097,3.24262 -0.646077,1.3341 -1.322176,2.86569 -2.034081,4.58869 -0.706014,1.729 -1.340097,3.52972 -1.902495,5.4023 -0.01792,0.1017 -0.0538,0.24528 -0.107703,0.41881 -0.0538,0.1795 -0.09571,0.353 -0.125624,0.53238 -0.02988,0.1795 -0.04787,0.32911 -0.04787,0.4547 0,0.12573 0.02399,0.18552 0.06579,0.18552 0.14358,0 0.358986,-0.1137 0.640185,-0.34103 0.2812,-0.23329 0.598206,-0.52648 0.951195,-0.8914 0.353025,-0.36498 0.7239,-0.75977 1.106805,-1.18459 0.230717,-0.2595 0.455013,-0.5104 0.672606,-0.75519 l 0.0011,-0.005 c 0.251283,-1.35213 0.825676,-2.43491 1.717074,-3.24263 0.0418,-0.0419 0.08971,-0.14947 0.14351,-0.31708 0.04791,-0.1615 0.125696,-0.36491 0.233397,-0.6042 0.101706,-0.23932 0.245287,-0.49061 0.41882,-0.75381 0.179387,-0.25729 0.412784,-0.50261 0.705871,-0.7299 0.538411,-0.46069 1.112803,-0.68799 1.711007,-0.68799 0.400897,0 0.753888,0.1197 1.064895,0.35899 0.311116,0.23929 0.532517,0.59221 0.670107,1.06489 0.13761,0.46662 0.15561,1.04691 0.0598,1.73493 -0.0897,0.68799 -0.347,1.48968 -0.759782,2.4051 0.534772,-0.0901 1.013282,-0.25041 1.439682,-0.47262 0.1778,-0.51378 0.37229,-1.02591 0.586,-1.53158 0.29309,-0.70002 0.60421,-1.37601 0.93931,-2.04611 0.329,-0.66411 0.64611,-1.25632 0.93331,-1.77681 0.14947,-0.25128 0.30508,-0.48461 0.46658,-0.70001 0.1675,-0.22137 0.37691,-0.32897 0.62819,-0.32897 0.0598,0 0.15551,0.0179 0.2812,0.0598 0.28713,0.10771 0.4487,0.26917 0.46662,0.48458 0.0239,0.2213 -0.0538,0.5564 -0.2154,1.01702 -0.0658,0.1675 -0.19742,0.49057 -0.40679,0.98118 -0.20941,0.4905 -0.43071,1.01099 -0.67,1.5614 -0.23932,0.5504 -0.44873,1.04701 -0.62822,1.49571 -0.0274,0.071 -0.0524,0.1373 -0.0751,0.1991 -0.005,0.0388 -0.0155,0.0782 -0.0302,0.11801 -0.007,0.014 -0.0167,0.0302 -0.029,0.0486 -0.0783,0.22962 -0.11137,0.37242 -0.099,0.43 0.29308,-0.37688 0.5922,-0.7837 0.90328,-1.2324 0.31712,-0.44869 0.64622,-0.87947 0.99911,-1.29229 0.35302,-0.41878 0.718,-0.81961 1.09491,-1.20248 0.37091,-0.3889 0.75981,-0.70591 1.15461,-0.95123 0.12559,-0.0658 0.24528,-0.1197 0.35898,-0.17349 0.1136,-0.0539 0.2333,-0.0778 0.35892,-0.0778 0.14358,0 0.29319,0.0419 0.43677,0.12558 0.31112,0.18549 0.47862,0.43681 0.4965,0.74793 0.0239,0.31108 -0.0478,0.64608 -0.21537,0.99906 -0.18542,0.41283 -0.38883,0.78373 -0.6102,1.10674 -0.2154,0.32307 -0.40682,0.61027 -0.57432,0.85559 -0.1675,0.25118 -0.29319,0.46059 -0.37691,0.62808 -0.0838,0.16761 -0.0599,0.2992 0.0658,0.4069 0.20338,0.1615 0.26917,0.35292 0.18539,0.55629 -0.0837,0.20941 -0.29309,0.31712 -0.62809,0.31712 -0.2274,0 -0.45469,-0.0777 -0.68202,-0.23929 -0.2334,-0.15551 -0.36499,-0.3948 -0.4069,-0.7299 -0.0239,-0.0837 0,-0.2273 0.0599,-0.42471 0.0658,-0.19748 0.13762,-0.3949 0.2213,-0.59231 0.0838,-0.19738 0.14362,-0.35899 0.18549,-0.49657 0.0419,-0.13762 0.0419,-0.17353 0,-0.1077 -0.52049,0.60427 -0.98718,1.23849 -1.40589,1.90249 -0.41278,0.6641 -0.79569,1.2923 -1.13668,1.88457 -0.347,0.59221 -0.64622,1.11274 -0.9034,1.56143 -0.26331,0.4487 -0.4966,0.75378 -0.70601,0.92128 -0.2273,0.20941 -0.4905,0.31112 -0.7777,0.31112 -0.2274,0 -0.43081,-0.0717 -0.6102,-0.2213 -0.17949,-0.14362 -0.29919,-0.341 -0.35898,-0.59231 -0.0838,-0.24529 -0.10771,-0.49661 -0.0778,-0.74779 0.0299,-0.24532 0.0658,-0.48461 0.1077,-0.7179 0.0614,-0.34121 0.14041,-0.70192 0.2401,-1.07992 -0.39599,0.13832 -0.796996,0.21583 -1.206782,0.23632 -0.20941,0.018 -0.347028,0.0419 -0.418817,0.0598 -0.07179,0.024 -0.161502,0.0838 -0.269206,0.19149 -0.436774,0.5564 -0.963189,1.0469 -1.591381,1.45969 -0.622195,0.41282 -1.202513,0.62223 -1.74692,0.62223 -0.622193,0 -1.112801,-0.29312 -1.465791,-0.87341 -0.02889,-0.0545 -0.05591,-0.1094 -0.08089,-0.16482 -0.278024,0.33761 -0.561022,0.66453 -0.843915,0.9784 -0.382905,0.43081 -0.759777,0.81361 -1.124691,1.1606 -0.364983,0.34703 -0.68199,0.59231 -0.9513,0.74193 -0.334998,0.20338 -0.663998,0.31108 -0.999102,0.31108 -0.352884,0 -0.663998,-0.1197 -0.933309,-0.35899 -0.275202,-0.24532 -0.472581,-0.5504 -0.598205,-0.92731 -0.119698,-0.4427 -0.143581,-0.96919 -0.0598,-1.57939 0.081,-0.5963 0.206904,-1.20932 0.372216,-1.83931 -0.378707,0.1269 -0.762106,0.19851 -1.153513,0.21802 -0.209409,0.018 -0.346992,0.0419 -0.418782,0.0598 -0.07183,0.024 -0.161502,0.0838 -0.269205,0.19148 -0.43681,0.5564 -0.963189,1.04691 -1.591416,1.45969 -0.622194,0.41282 -1.202478,0.62223 -1.746885,0.62223 -0.622194,0 -1.112802,-0.29312 -1.465792,-0.8734 -0.09063,-0.17071 -0.161925,-0.34552 -0.213924,-0.52451 -0.539186,0.5123 -1.125185,1.0475 -1.757892,1.60729 -0.987107,0.87951 -2.016089,1.717 -3.074987,2.51872 -1.059004,0.80169 -2.028119,1.4 -2.901597,1.7948 -0.789728,0.33499 -1.501599,0.50249 -2.123828,0.50249 -0.58039,0 -1.082887,-0.13158 -1.495672,-0.38879 -0.41884,-0.26331 -0.753838,-0.62219 -0.999124,-1.07692 -0.275202,-0.46069 -0.448698,-0.95119 -0.532518,-1.47168 -0.08368,-0.52049 -0.101706,-1.04701 -0.0598,-1.59142 0.04191,-0.53837 0.131622,-1.08289 0.281199,-1.6213 0.143616,-0.54437 0.311115,-1.06489 0.496606,-1.5615"
       style="fill:#b50776;fill-opacity:1;fill-rule:evenodd;stroke:none;stroke-width:0.35277775"
       id="path90"
       inkscape:connector-curvature="0" />
    <path
       d="m 116.2631,100.9668 c 0.0658,0 0.12559,-0.006 0.19138,-0.0179 0.0599,-0.012 0.11974,-0.0179 0.18553,-0.0179 0.78969,0 1.45979,0.2213 2.01609,0.67 0.5504,0.4487 0.87951,1.04697 0.98121,1.79479 0.10167,0.80769 0.0239,1.65121 -0.23332,2.52469 -0.26328,0.87341 -0.6282,1.82471 -1.11281,2.8417 -0.39489,0.87351 -0.7179,1.57942 -0.96319,2.1059 -0.25128,0.53252 -0.44869,0.93931 -0.59231,1.22051 -0.14947,0.28109 -0.24528,0.47262 -0.29908,0.57428 -0.0539,0.10771 -0.0898,0.1675 -0.10771,0.19142 0.329,-0.46058 0.76581,-1.01698 1.29219,-1.67509 0.53252,-0.65211 1.12484,-1.34609 1.78291,-2.07603 0.65211,-0.7239 1.35202,-1.45369 2.08791,-2.18359 0.74189,-0.72989 1.48372,-1.37601 2.2315,-1.9504 0.75381,-0.57429 1.48971,-1.04091 2.21961,-1.40589 0.72989,-0.36491 1.40589,-0.54441 2.02808,-0.54441 0.64611,0 1.06489,0.21541 1.26231,0.64012 0.19748,0.42478 0.13169,0.97518 -0.19742,1.63929 -0.35888,0.68799 -0.87936,1.56139 -1.5615,2.6204 -0.68798,1.06489 -1.39989,2.23749 -2.14168,3.52971 -0.73589,1.2863 -1.4419,2.66827 -2.1059,4.13399 -0.66411,1.46579 -1.15471,2.9614 -1.46579,4.48099 -0.0239,0.0598 -0.0478,0.14961 -0.0777,0.26331 -0.03,0.1136 -0.0479,0.24522 -0.0479,0.3888 0,0.14961 0.0179,0.29919 0.0598,0.45469 0.0419,0.15551 0.12569,0.30512 0.25128,0.4547 0.18549,0.18542 0.2752,0.40682 0.26921,0.66999 -0.012,0.25732 -0.10171,0.47273 -0.26921,0.64022 -0.2274,0.1675 -0.4966,0.25118 -0.80768,0.25118 -0.29313,0 -0.54441,-0.0777 -0.75382,-0.2213 -0.39479,-0.26916 -0.68199,-0.58628 -0.85549,-0.95119 -0.17952,-0.36498 -0.28119,-0.75389 -0.31111,-1.1726 -0.0359,-0.41278 -0.006,-0.8436 0.0778,-1.2803 0.0778,-0.43677 0.1615,-0.87348 0.24532,-1.31018 0.12559,-0.53852 0.28709,-1.13072 0.48458,-1.76491 0.19741,-0.63419 0.4367,-1.29219 0.7179,-1.98029 0.2812,-0.68802 0.59821,-1.3819 0.95123,-2.08791 0.35899,-0.71191 0.7299,-1.40589 1.1248,-2.09391 0.54437,-0.93927 1.13069,-1.81868 1.76477,-2.65628 0.63422,-0.8316 1.28633,-1.71101 1.9504,-2.65031 -0.3949,0.0837 -0.87948,0.335 -1.4538,0.74782 -0.56839,0.41878 -1.13668,0.8914 -1.69908,1.42388 -0.56229,0.52648 -1.08881,1.0529 -1.59142,1.57339 -0.4965,0.52052 -0.87337,0.92731 -1.12469,1.2205 -0.9991,1.16061 -1.89649,2.27341 -2.69818,3.32031 -0.80162,1.05301 -1.52552,2.064 -2.1717,3.02729 -0.64611,0.96912 -1.2264,1.8964 -1.74692,2.7819 -0.52049,0.87941 -1.02299,1.74092 -1.5016,2.57249 -0.1197,0.22733 -0.1735,0.40083 -0.15561,0.51453 0.024,0.1137 0.14961,0.2692 0.37691,0.4547 0.4966,0.45469 0.5504,0.9453 0.15561,1.46568 -0.20941,0.31111 -0.49661,0.46673 -0.87352,0.46673 -0.29309,0 -0.61619,-0.0838 -0.96918,-0.24533 -0.35292,-0.16749 -0.6222,-0.36487 -0.80762,-0.59831 -0.37687,-0.45459 -0.47858,-1.2204 -0.31707,-2.29129 0.1675,-1.07089 0.52648,-2.35119 1.07688,-3.8409 0.55641,-1.48368 1.25632,-3.13489 2.1118,-4.94761 0.8496,-1.80678 1.7888,-3.67329 2.80589,-5.58778 0.2273,-0.43671 0.42482,-0.81961 0.58032,-1.15461 0.15561,-0.32911 0.2812,-0.63419 0.37088,-0.90339 0.0958,-0.26921 0.16753,-0.53841 0.2214,-0.79569 0.0478,-0.26321 0.0897,-0.52652 0.1077,-0.79573 0.0239,-0.5624 -0.2692,-0.84349 -0.87347,-0.84349 h -0.12562 c -0.47858,0.0179 -1.05901,0.17942 -1.747,0.48461 -0.68798,0.29909 -1.3819,0.68199 -2.09391,1.14261 -0.70587,0.4547 -1.38197,0.97519 -2.02808,1.5615 -0.64611,0.58029 -1.1666,1.1846 -1.5615,1.81268 0.0838,0.0419 0.17949,0.0599 0.2812,0.0599 h 0.0958 c 0.16749,0.0598 0.28708,0.14362 0.35888,0.24532 0.0718,0.10167 0.1017,0.20927 0.0957,0.31697 -0.0119,0.11371 -0.0598,0.21541 -0.14362,0.30512 -0.0837,0.0898 -0.19738,0.13769 -0.34099,0.13769 -0.20941,0 -0.41868,0.0179 -0.62809,0.0538 -0.20341,0.0359 -0.4009,0.0538 -0.59231,0.0538 -0.18549,0 -0.35299,-0.0418 -0.49661,-0.12559 -0.14947,-0.0838 -0.23929,-0.25731 -0.2812,-0.52648 -0.0418,-0.27521 0.0599,-0.62812 0.31112,-1.07682 0.25128,-0.4487 0.59831,-0.92139 1.04701,-1.41789 0.44869,-0.4966 0.97518,-1.01109 1.59138,-1.54351 0.61019,-0.52652 1.26231,-1.01109 1.95029,-1.4478 0.68803,-0.4368 1.394,-0.80168 2.12383,-1.1068 0.7239,-0.29919 1.42388,-0.48461 2.08799,-0.54451 z m 9.65941,16.00962 c -0.0598,0.12559 -0.1136,0.29309 -0.15551,0.4965 -0.0419,0.20941 -0.0838,0.41878 -0.12559,0.62819 -0.0419,0.20342 -0.0658,0.38291 -0.0778,0.53841 -0.012,0.14958 -0.018,0.24529 -0.018,0.2872 0.024,0.18549 0.0958,0.2752 0.22141,0.2752 0.1017,0 0.18549,-0.012 0.25128,-0.0299 0.26921,-0.10171 0.53841,-0.25728 0.80762,-0.4547 0.2752,-0.20341 0.43081,-0.33499 0.47268,-0.40079 -0.58628,-0.2692 -1.04097,-0.7179 -1.37608,-1.34009 z m 2.37518,0.0119 c 0.11959,-0.25117 0.23932,-0.52038 0.35892,-0.81361 0.1137,-0.29309 0.20337,-0.58028 0.2812,-0.86748 0.0718,-0.2812 0.11959,-0.53241 0.1555,-0.75381 0.03,-0.21537 0.0419,-0.37088 0.0419,-0.4547 0,-0.0418 0,-0.1077 0,-0.20338 0,-0.0957 -0.0299,-0.2154 -0.0897,-0.35891 -0.0419,-0.14961 -0.1137,-0.2214 -0.2214,-0.2214 -0.10171,0 -0.23933,0.0598 -0.40683,0.18549 -0.1615,0.12562 -0.29908,0.26321 -0.40079,0.41282 -0.5026,0.66999 -0.71201,1.30418 -0.62819,1.91438 0.0838,0.60431 0.335,1.01709 0.74779,1.2264 0.024,0.018 0.0539,0.03 0.0957,0.03 0.024,0 0.0419,-0.03 0.0659,-0.0958 z m 4.64601,2.9016 c 0.12559,-0.0658 0.31108,-0.25128 0.55041,-0.56229 0.23929,-0.31112 0.52049,-0.70002 0.8436,-1.15471 0.317,-0.4607 0.66399,-0.96319 1.02898,-1.51359 0.36491,-0.55041 0.7239,-1.10681 1.08881,-1.65721 0.36498,-0.55037 0.7179,-1.0649 1.0649,-1.54348 0.34099,-0.47861 0.64611,-0.87351 0.92131,-1.18462 0.10178,-0.12559 0.2274,-0.23929 0.37098,-0.347 0.14951,-0.1017 0.2812,-0.1555 0.40682,-0.1555 0.10168,0 0.1855,0.0299 0.25129,0.0957 0.1675,0.14361 0.20941,0.32311 0.13758,0.53252 -0.0718,0.20337 -0.16757,0.39479 -0.29319,0.55629 -0.81358,1.25039 -1.5076,2.35719 -2.09388,3.31438 -0.58032,0.9572 -1.08881,1.7828 -1.53162,2.47682 -0.4367,0.69998 -0.81961,1.26838 -1.15461,1.71708 -0.32907,0.44862 -0.67599,0.78972 -1.02898,1.01702 -0.28719,0.20941 -0.59231,0.31108 -0.90339,0.31108 -0.5624,0 -0.98711,-0.3889 -1.2803,-1.1726 -0.24772,-0.65729 -0.29041,-1.5155 -0.13512,-2.5673 l -0.1137,0.0486 c -0.46069,0.18549 -0.92731,0.28719 -1.40589,0.31111 -0.20941,0.018 -0.34699,0.0419 -0.41881,0.0598 -0.0718,0.024 -0.16151,0.0838 -0.26921,0.19149 -0.43677,0.5564 -0.96319,1.0469 -1.59138,1.45969 -0.62219,0.41282 -1.20251,0.62223 -1.74689,0.62223 -0.62222,0 -1.1128,-0.29313 -1.46582,-0.87341 -0.31108,-0.58632 -0.39479,-1.2205 -0.25128,-1.90849 0.25128,-1.35213 0.82567,-2.43491 1.7171,-3.24263 0.0418,-0.0419 0.0897,-0.14947 0.14348,-0.31708 0.0479,-0.1615 0.1257,-0.36491 0.2334,-0.6042 0.1017,-0.23932 0.24532,-0.49061 0.41882,-0.75382 0.17938,-0.25728 0.41278,-0.5026 0.7059,-0.72989 0.53838,-0.46069 1.11277,-0.68799 1.71098,-0.68799 0.40089,0 0.75392,0.1197 1.06489,0.35899 0.31112,0.23929 0.53252,0.59221 0.6701,1.06489 0.13762,0.46662 0.15561,1.04691 0.0598,1.73493 -0.0897,0.68799 -0.34702,1.48967 -0.75981,2.4051 0.5927,-0.0998 1.11619,-0.28582 1.57639,-0.54691 0.1035,-0.44962 0.21791,-0.89299 0.34159,-1.33171 0.19742,-0.69398 0.3949,-1.3281 0.59232,-1.90249 0.19741,-0.56829 0.3889,-1.0589 0.58028,-1.46572 0.18553,-0.40679 0.34103,-0.69998 0.46673,-0.8914 0.2093,-0.31108 0.44859,-0.46669 0.7179,-0.46669 0.18538,0 0.34699,0.0957 0.48457,0.2812 0.13163,0.18549 0.14951,0.42481 0.0478,0.7179 -0.4367,1.49571 -0.81957,2.7879 -1.14268,3.87082 -0.0257,0.0863 -0.0507,0.1723 -0.075,0.25809 0.0281,0.0254 0.0538,0.0549 0.0775,0.0889 0.0897,0.13159 0.1077,0.28709 0.0478,0.4487 -0.04,0.08 -0.1675,0.23128 -0.3774,0.4536 -0.144,0.64008 -0.2474,1.2646 -0.31302,1.8736 -0.0598,0.53848 -0.0538,0.97519 0.0299,1.31019 z m 11.06541,-5.82108 c -0.41882,0 -0.86152,0.1197 -1.3401,0.36498 -0.47861,0.23929 -0.93331,0.52642 -1.35812,0.84949 -0.43071,0.32311 -0.7897,0.67004 -1.07689,1.02302 -0.29309,0.35899 -0.4486,0.65211 -0.47262,0.88551 0.33503,0 0.74782,-0.14961 1.23843,-0.45469 0.48457,-0.30512 0.95719,-0.65211 1.4,-1.02902 0.44869,-0.37691 0.83149,-0.7299 1.14257,-1.05301 0.31112,-0.329 0.46673,-0.52049 0.46673,-0.58628 z m -1.92642,3.40409 c -0.41278,0.2872 -0.8854,0.59229 -1.40589,0.91539 -0.52052,0.31712 -1.07089,0.53241 -1.65121,0.63412 -0.0659,0.024 -0.15561,0.0359 -0.2812,0.0359 -0.2692,0 -0.53248,-0.0718 -0.7838,-0.2213 -0.24518,-0.14358 -0.4367,-0.34099 -0.55629,-0.59228 -0.1257,-0.25131 -0.1735,-0.5504 -0.14362,-0.90942 0.0299,-0.35288 0.17353,-0.73579 0.41882,-1.15457 0.317,-0.52053 0.664,-1.02302 1.0469,-1.50171 0.3889,-0.47861 0.81368,-0.90932 1.2803,-1.28622 0.46669,-0.37088 0.96919,-0.68799 1.5016,-0.93928 0.52649,-0.24532 1.09488,-0.40682 1.69909,-0.46661 0.14361,0 0.31111,0.0179 0.4966,0.0478 0.19142,0.0299 0.35891,0.0898 0.52052,0.17349 0.15547,0.0778 0.28709,0.19153 0.40079,0.32311 0.11371,0.13758 0.1735,0.29909 0.1735,0.48461 0.0419,-0.0419 0.13159,-0.1675 0.26321,-0.37102 0.13758,-0.2093 0.2274,-0.33499 0.26927,-0.3769 0.22733,-0.18539 0.45463,-0.2811 0.68803,-0.2811 0.329,0 0.5982,0.16151 0.80758,0.48461 0.2094,0.32301 0.19741,0.77171 -0.0299,1.33411 -0.14362,0.33499 -0.38291,0.78369 -0.71791,1.34609 -0.33499,0.56229 -0.6641,1.1606 -0.9991,1.78879 -0.335,0.62819 -0.63419,1.24443 -0.90339,1.86062 -0.2752,0.6222 -0.43071,1.14858 -0.47262,1.58539 0.0419,0 0.2273,-0.1077 0.55041,-0.32911 0.323,-0.2153 0.7119,-0.4905 1.1666,-0.8256 0.46069,-0.335 0.95119,-0.69399 1.47172,-1.07679 0.52048,-0.3829 0.9991,-0.74789 1.4478,-1.09491 0.44869,-0.341 0.82556,-0.62809 1.12479,-0.85549 0.29909,-0.22729 0.46059,-0.34699 0.48451,-0.34699 0.12569,-0.0419 0.20937,-0.0598 0.25128,-0.0598 0.18549,0 0.34099,0.0778 0.46669,0.23329 0.12562,0.15561 0.14351,0.34099 0.0598,0.54441 -0.018,0.0658 -0.17949,0.23928 -0.47858,0.53248 -0.30512,0.29312 -0.6701,0.65211 -1.09481,1.07692 -0.42481,0.42468 -0.90339,0.87937 -1.42388,1.35798 -0.52052,0.47862 -1.01113,0.92732 -1.47772,1.3401 -0.47268,0.41282 -0.87951,0.76581 -1.23239,1.05301 -0.35902,0.28709 -0.59831,0.4547 -0.71801,0.4965 -0.31701,0.14358 -0.65811,0.2154 -1.03501,0.2154 -0.3948,0 -0.74779,-0.1017 -1.0589,-0.31111 -0.31108,-0.20941 -0.53838,-0.51449 -0.68799,-0.92128 -0.14358,-0.40682 -0.18538,-0.90943 -0.12559,-1.51363 0.0658,-0.59827 0.26321,-1.2863 0.59821,-2.058 0.018,-0.0599 0.0419,-0.11969 0.0718,-0.16757 0.0359,-0.0538 0.0419,-0.11962 0.018,-0.20341"
       style="fill:#676a6b;fill-opacity:1;fill-rule:evenodd;stroke:none;stroke-width:0.35277775"
       id="path92"
       inkscape:connector-curvature="0" />
    <path
       d="m 108.63689,65.727726 h 22.2903 c 0.11021,0.204682 0.25019,0.393207 0.4172,0.561482 l 0.3798,0.382622 -0.23848,0.483482 c -0.173,0.350697 -0.31902,0.729898 -0.39352,1.114602 l -0.11988,0.618701 -0.6301,-0.0073 c -0.41881,-0.0046 -0.77251,0.270299 -0.89281,0.668514 l -0.147,0.486093 -0.5056,0.0472 c -0.9495,0.08879 -1.79772,0.49149 -2.4856,1.144587 h -17.67431 z"
       style="fill:#2c9ce0;fill-opacity:1;fill-rule:evenodd;stroke:#54a5e0;stroke-width:0.19998972;stroke-linecap:butt;stroke-linejoin:miter;stroke-miterlimit:22.92558479;stroke-dasharray:none;stroke-opacity:1"
       id="path94"
       inkscape:connector-curvature="0" />
    <path
       d="m 108.63689,72.080302 h 16.33361 c -1.02041,0.97991 -1.42201,2.772621 -1.48431,4.046008 -0.014,0.287302 0.10072,0.567196 0.31761,0.756708 l 0.16979,0.148096 0.0609,0.216817 c 0.0316,0.112889 0.0691,0.223873 0.11239,0.332387 h -15.51002 z"
       style="fill:#b50776;fill-opacity:1;fill-rule:evenodd;stroke:none;stroke-width:0.35277775"
       id="path96"
       inkscape:connector-curvature="0" />
    <path
       d="m 108.63689,78.43263 h 16.02521 c 0.0608,0.06999 0.12531,0.137089 0.1935,0.200977 0.21601,0.2026 0.46729,0.284409 0.76119,0.248109 0.12379,-0.01531 0.24282,-0.04791 0.35571,-0.101001 l 0.73949,-0.348085 h 0.85302 l -0.57803,1.331983 c -0.22077,0.508599 -0.4233,1.035014 -0.56328,1.571695 -0.22909,0.877394 -0.2636,1.767311 -0.0621,2.596303 h -17.72472 z"
       style="fill:#de2930;fill-opacity:1;fill-rule:evenodd;stroke:none;stroke-width:0.35277775"
       id="path98"
       inkscape:connector-curvature="0" />
    <path
       d="m 108.63689,84.784923 h 18.02832 c 0.19297,0.401707 0.453,0.780203 0.78578,1.12529 l 0.17621,0.183021 0.0299,0.252201 c 0.006,0.05359 0.0129,0.106997 0.0194,0.160479 0.0825,0.677192 0.1814,1.352197 0.27873,2.027202 l 0.1221,0.846314 -0.85482,0.01647 c -0.19939,0.004 -0.38798,0.0726 -0.54758,0.191312 -0.23512,0.175401 -0.4464,0.427496 -0.60953,0.697688 h -17.42848 z"
       style="fill:#ec9a00;fill-opacity:1;fill-rule:evenodd;stroke:none;stroke-width:0.35277775"
       id="path100"
       inkscape:connector-curvature="0" />
    <path
       d="m 108.63689,91.137214 h 17.09022 c -0.1862,0.8787 0.0782,1.768407 0.55008,2.540106 0.49371,0.806911 0.9772,2.005296 0.9949,2.955396 v 0.0045 h -18.6352 z"
       style="fill:#9cd455;fill-opacity:1;fill-rule:evenodd;stroke:none;stroke-width:0.35277775"
       id="path102"
       inkscape:connector-curvature="0" />
    <path
       d="m 107.20691,65.727726 h -5.49621 c -1.69919,0 -3.089417,1.390192 -3.089417,3.089381 v 3.505624 c -0.299789,2.39349 -1.86898,4.583076 -5.131576,5.122474 3.643279,5.074919 5.131576,10.188998 5.131576,16.333927 0,1.551482 1.269331,2.820776 2.820817,2.820776 h 5.76481 z"
       style="fill:#676a6b;fill-opacity:1;fill-rule:evenodd;stroke:none;stroke-width:0.35277775"
       id="path104"
       inkscape:connector-curvature="0" />
    <path
       d="m 80.355015,87.221911 c 4.718685,0.03972 9.57968,-1.724801 14.674885,-6.452305 1.308807,2.401711 2.170007,4.863218 2.649715,7.494517 0.0097,0.09391 0.01849,0.187677 0.02627,0.281587 -0.983898,-1.583302 -2.318491,-2.745775 -4.359804,-3.060594 -1.437993,-0.31489 -3.48608,0.420299 -5.741494,1.512499 -2.2975,0.941987 -5.483683,0.825888 -7.249583,0.224296"
       style="fill:#4a4c4d;fill-opacity:1;fill-rule:evenodd;stroke:none;stroke-width:0.35277775"
       id="path106"
       inkscape:connector-curvature="0" />
    <path
       d="m 72.232201,81.33973 c 2.433003,-3.703108 5.88899,-5.487105 10.047182,-5.953513 3.066203,-0.317394 5.436799,0.602192 7.68611,1.737184 1.294095,0.530824 2.257389,0.619619 3.049411,0.479425 l 0.94869,1.375586 c 0.293405,0.454307 0.569807,0.909602 0.829698,1.366908 l -0.08449,0.07828 c -4.034896,3.74382 -8.723207,6.373708 -14.349801,6.32633 l -1.315896,-0.01111 c -2.714096,-1.132701 -5.282424,-3.044792 -6.810904,-5.39909 z m 10.766213,3.013004 c -1.642815,0 -2.974622,-1.3317 -2.974622,-2.974516 0,-1.642886 1.331807,-2.974693 2.974622,-2.974693 1.642886,0 2.974587,1.331807 2.974587,2.974693 0,1.642816 -1.331701,2.974516 -2.974587,2.974516"
       style="fill:#676a6b;fill-opacity:1;fill-rule:evenodd;stroke:none;stroke-width:0.35277775"
       id="path108"
       inkscape:connector-curvature="0" />
    <path
       d="m 125.36159,65.728115 v 2.11e-4 c 0,0 0,-1.06e-4 0,-2.11e-4"
       style="fill:#bf067a;fill-opacity:1;fill-rule:evenodd;stroke:none;stroke-width:0.35277775"
       id="path110"
       inkscape:connector-curvature="0" />
    <path
       d="m 144.1087,76.492422 c 0,0 -0.5189,-0.830121 -0.3114,-1.712207 0,0 -0.6724,2.596198 -2.05941,2.920118 0.003,-0.0297 0.007,-0.06022 0.01,-0.08943 0.12989,-1.207382 0.29891,-2.778478 -0.1071,-3.719194 0.6732,-0.255094 2.96248,-1.238392 3.79948,-3.088675 0.9857,-2.179215 1.93693,-1.037908 2.45583,-0.743833 0,0 -0.57083,-0.172684 -0.32872,0.674723 0,0 1.0892,0.172897 1.34881,1.12388 0,0 -0.91369,-0.330977 -1.28111,-0.06618 -0.0523,0.03761 -0.0938,0.08781 -0.1198,0.152682 -0.20719,0.518795 -0.0518,1.729422 0.98591,2.36922 0,0 -1.2451,0.466689 -2.38651,-0.501614 0,0 -1.79839,0.8993 -2.0059,2.68051"
       style="fill:#b50776;fill-opacity:1;fill-rule:nonzero;stroke:none;stroke-width:0.35277775"
       id="path112"
       inkscape:connector-curvature="0" />
    <path
       d="m 136.11899,88.528706 c 0.31139,-0.709189 0.69179,-1.815994 0.29442,-1.760785 -0.31132,0.04279 -1.3886,0.01859 -1.844,0.0059 0.0839,-1.12388 0.4778,-2.112786 1.62158,-3.177293 l 0.27291,-0.253401 c 0.2662,-0.247685 0.4942,-0.459598 0.69169,-0.6477 0.6695,0.462492 3.0935,2.180802 3.39072,3.014486 0.34558,0.968622 -2.0575,3.665996 -2.0575,3.665996 0,0 0.24168,0.06953 1.74639,0.138325 1.50449,0.06918 1.76381,-0.328613 2.99148,-0.657119 0.60032,-0.160691 1.17602,0.137618 1.53271,0.436103 0.37282,0.311821 0.50642,0.623606 0.1795,0.411516 -0.64051,-0.414902 -1.46988,0.0956 -1.46988,0.0956 0.64008,0.303071 0.72668,2.307871 0.5534,1.823895 -0.17301,-0.484222 -2.10951,-0.933908 -1.55642,-0.415007 0.0238,0.02252 0.0466,0.04579 0.0683,0.07041 0.47882,0.542573 0.41592,1.554974 0.41592,1.554974 0,0 0,0 -0.77802,-0.294076 -0.77851,-0.293899 -2.352,-0.812623 -3.96038,-0.587621 -1.60842,0.224507 -2.8883,-0.138785 -3.42421,-0.743691 -0.53611,-0.605084 1.0202,-1.971393 1.33139,-2.680511"
       style="fill:#b50776;fill-opacity:1;fill-rule:nonzero;stroke:none;stroke-width:0.35277775"
       id="path114"
       inkscape:connector-curvature="0" />
    <path
       d="m 127.23911,90.344312 c -0.4669,0.88212 0.2595,1.323093 0.2595,1.323093 0,0 1.81589,-0.181682 1.53018,-2.282578 -0.28529,-2.101321 -0.6483,-4.150501 -0.5189,-5.188126 0.12993,-1.037484 2.4385,-2.023287 3.26869,-2.775691 0.83013,-0.752193 0.88212,-0.777981 0.77802,-3.216487 -0.0762,-1.787489 0.46048,-3.584892 0.75301,-4.419211 0.0274,-0.0459 0.0554,-0.09179 0.0892,-0.137795 0.0854,-0.118498 0.17522,-0.247791 0.285,-0.361104 0.1015,-0.12199 0.2133,-0.234385 0.32812,-0.329706 0.11039,-0.100894 0.21417,-0.196391 0.31599,-0.260596 0.19808,-0.139806 0.33009,-0.232799 0.33009,-0.232799 0,0 -0.14598,0.07119 -0.3646,0.178118 -0.11348,0.04829 -0.23188,0.126577 -0.36138,0.211102 -0.13342,0.07878 -0.26691,0.175472 -0.39201,0.284374 -0.1331,0.100119 -0.24959,0.219322 -0.36061,0.331012 -0.0287,0.02801 -0.052,0.0569 -0.0778,0.08569 -0.47752,0.366712 -0.70061,0.785812 -0.70061,0.785812 -0.2322,-2.037009 0.0526,-3.408715 0.2523,-4.065305 0.1064,-0.0962 0.22222,-0.207892 0.33641,-0.329812 0.1451,-0.162772 0.27189,-0.338385 0.35599,-0.475474 0.0711,-0.142628 0.11899,-0.237913 0.11899,-0.237913 0,0 -0.0686,0.07952 -0.1712,0.19879 -0.11158,0.109926 -0.27009,0.2425 -0.44009,0.358316 -0.1046,0.0696 -0.20969,0.131199 -0.3078,0.184785 -1.0336,0.463621 -2.1935,-0.147002 -2.1935,-0.147002 0,0 1.60789,0.05193 1.63382,-1.089484 0.026,-1.141412 1.32309,-2.593904 1.32309,-2.593904 -1.4006,0 -1.68589,-1.219306 -1.68589,-1.219306 0,0 1.08938,1.323093 2.69759,0.20761 1.60821,-1.115413 3.94299,-0.328507 3.94299,-0.328507 h 2.7153 v 1.832998 l -0.415,0.709119 c 0,0 -0.75258,-0.761013 -1.2977,-0.64001 -0.54458,0.120897 -0.88191,0.873407 -0.97709,1.565099 -0.0953,0.691797 1.3921,0.830015 1.3921,0.830015 0,0 0.53668,-0.432117 0.71812,0.216394 0.18146,0.648406 -0.33751,1.988573 -0.93402,1.988573 -0.59679,0 -1.13291,-1.227878 -1.13291,-1.227878 0,0 -0.25919,-0.285292 -0.26779,0.570477 -0.009,0.856227 1.9105,1.868029 3.0693,2.871011 1.15899,1.002912 0.0998,4.984714 0.3591,5.477721 0.2595,0.49269 1.2972,1.8288 1.71231,1.984375 0.41469,0.155611 0.50588,-0.246274 1.06338,-0.869103 0.55781,-0.622582 1.88062,-0.27238 1.88062,-0.27238 -0.85602,0.05189 -0.9985,1.219306 -0.9985,1.219306 0.31097,-0.155716 1.75097,1.322882 1.75097,1.322882 -0.55767,-0.427885 -2.30889,0 -1.86778,0.168698 0.4409,0.168592 0.9597,2.101215 0.9597,2.101215 0,0 0.19438,0.596477 0,0.09049 -0.19459,-0.505389 -1.32281,-0.998678 -1.32281,-0.998678 0.22059,0.259679 -0.12979,0.882085 -0.12979,0.882085 -0.12971,-0.5576 -1.4787,-1.34881 -2.29559,-1.945287 -0.81743,-0.5969 -4.22822,-2.620222 -4.1764,-1.867817 l 0.001,0.0206 c 0.0443,0.736494 -0.28959,1.001607 -2.02081,2.612284 -1.74629,1.625529 -1.833,3.043625 -1.6256,5.257412 0.20739,2.213398 -3.82528,4.042304 -3.82528,4.833196 0,0.790999 1.50428,2.386505 1.50428,2.386505 0,0 2.25679,-0.220485 2.9052,0.18161 0.6484,0.401992 1.19309,1.893607 1.19309,1.893607 -0.4928,-0.817316 -1.4786,-0.531812 -1.4786,-0.531812 0.5189,1.03759 0.14281,2.140196 0.14281,2.140196 0.0648,-0.6876 -1.29688,-2.101393 -1.29688,-2.101393 0.44079,0.64869 -0.12993,2.101393 -0.12993,2.101393 -0.20758,-0.661599 -0.89479,-0.518795 -0.89479,-0.518795 -2.2958,-0.635707 -2.37338,-3.484809 -2.56381,-2.81051 -0.1898,0.674721 -0.69159,0.692115 -0.69159,0.692115 -0.56751,-0.652499 -0.58741,-1.378304 -0.57661,-1.62112 -0.0532,0.407424 -0.49558,1.292614 -0.49558,1.292614 0,0 0.008,-1.586903 -1.13352,-3.454612 -1.14229,-1.867678 0.15643,-2.840496 0.15643,-2.840496"
       style="fill:#b50776;fill-opacity:1;fill-rule:nonzero;stroke:none;stroke-width:0.35277775"
       id="path116"
       inkscape:connector-curvature="0" />
    <path
       d="m 125.09228,75.278126 c 0.046,-0.09902 0.0976,-0.177412 0.14341,-0.263207 0.0473,-0.08149 0.0947,-0.140089 0.1344,-0.200908 0.0204,-0.0332 0.0399,-0.04311 0.0573,-0.06219 0.0179,-0.01669 0.0323,-0.0315 0.0452,-0.04371 0.0252,-0.02431 0.0397,-0.0387 0.0397,-0.0387 0,0 -0.0145,0.0082 -0.0397,0.02212 -0.0129,0.0074 -0.0288,0.01587 -0.0467,0.026 -0.018,0.01228 -0.0398,0.0164 -0.0615,0.04159 -0.0431,0.04579 -0.0975,0.0908 -0.15141,0.157904 -0.0525,0.07098 -0.11402,0.138006 -0.16788,0.22359 -0.0346,0.04981 -0.0667,0.1016 -0.0993,0.153 -0.1596,0.181116 -0.37381,0.474309 -0.51672,0.878698 0,0 0.17431,-3.68949 2.16161,-3.854308 0.7233,-0.90999 2.12701,-1.81289 4.12701,-0.992893 0.5056,0.207116 0.86977,0.575098 1.05388,1.063696 0.55679,1.478703 -0.5861,3.777826 -1.7963,6.212098 -0.62258,1.252326 -1.2107,2.435296 -1.43369,3.289018 -0.18782,0.719596 -0.14542,1.279278 0.003,1.711995 -0.13028,0.184185 -0.21661,0.373909 -0.24081,0.569207 -0.042,0.334187 -0.0349,0.761189 0.002,1.255289 -0.7905,-0.719102 -1.45968,-1.975485 -0.96961,-3.851486 0.2552,-0.977795 0.87151,-2.216715 1.52312,-3.528025 0.94121,-1.892688 2.11219,-4.247973 1.74639,-5.2191 -0.0624,-0.16577 -0.17349,-0.273791 -0.36149,-0.350767 -1.35322,-0.555625 -2.1904,0.04399 -2.61129,0.534282 0.0487,0.250614 0.0694,0.595313 0.0161,1.068599 -0.15138,1.348916 -1.042,0.536293 -1.3533,2.170395 -0.31118,1.63449 -0.79551,1.694497 -0.79551,1.694497 0,0 -1.0123,-0.947384 -0.52938,-2.414376 0.0381,-0.08343 0.0783,-0.16891 0.12048,-0.252306"
       style="fill:#b50776;fill-opacity:1;fill-rule:nonzero;stroke:none;stroke-width:0.35277775"
       id="path118"
       inkscape:connector-curvature="0" />
  </g>
</svg>
